<svg width="128" height="128" xmlns="http://www.w3.org/2000/svg">

 <g>
  <title>background</title>
  <rect fill="none" id="canvas_background" height="602" width="802" y="-1" x="-1"/>
 </g>
 <g>
  <title>Layer 1</title>
  <path id="svg_1" d="m30.762,77.907l-1.74,0l0,-9.963c0,-0.787 0.051,-1.745 0.144,-2.875l-0.039,0c-0.164,0.661 -0.313,1.14 -0.444,1.436l-5.061,11.402l-0.848,0l-5.071,-11.319c-0.142,-0.316 -0.292,-0.825 -0.443,-1.519l-0.038,0c0.054,0.594 0.084,1.558 0.084,2.895l0,9.943l-1.679,0l0,-14.837l2.296,0l4.552,10.347c0.343,0.779 0.565,1.372 0.673,1.776l0.071,0c0.298,-0.811 0.534,-1.42 0.711,-1.82l4.651,-10.303l2.179,0l0,14.837l0.002,0zm5.356,0l-1.692,0l0,-10.595l1.692,0l0,10.595zm0.292,-14.394c0,0.313 -0.11,0.573 -0.328,0.787c-0.213,0.214 -0.479,0.322 -0.788,0.322c-0.303,0 -0.566,-0.104 -0.782,-0.311c-0.216,-0.208 -0.322,-0.473 -0.322,-0.799c0,-0.306 0.106,-0.567 0.322,-0.779c0.216,-0.212 0.479,-0.314 0.782,-0.314c0.31,0 0.575,0.103 0.788,0.314c0.218,0.213 0.328,0.474 0.328,0.78m10.281,13.904c-0.812,0.499 -1.781,0.746 -2.902,0.746c-1.52,0 -2.742,-0.504 -3.676,-1.511c-0.908,-0.978 -1.364,-2.24 -1.364,-3.786c0,-1.736 0.496,-3.141 1.497,-4.209c0.996,-1.069 2.334,-1.603 4.018,-1.603c0.92,0 1.737,0.18 2.452,0.538l0,1.741c-0.791,-0.555 -1.627,-0.831 -2.525,-0.831c-1.079,0 -1.957,0.377 -2.637,1.128c-0.709,0.77 -1.068,1.798 -1.068,3.082c0,1.232 0.328,2.209 0.979,2.929c0.653,0.717 1.523,1.076 2.621,1.076c0.926,0 1.794,-0.305 2.606,-0.911l0,1.611l-0.001,0zm8.095,-8.386c-0.299,-0.23 -0.729,-0.341 -1.296,-0.341c-0.689,0 -1.269,0.308 -1.737,0.93c-0.532,0.694 -0.796,1.656 -0.796,2.886l0,5.401l-1.697,0l0,-10.596l1.697,0l0,2.185l0.041,0c0.249,-0.773 0.634,-1.368 1.148,-1.79c0.48,-0.385 1.024,-0.58 1.623,-0.58c0.452,0 0.787,0.049 1.016,0.145l0,1.759l0.001,0.001zm9.451,3.597c0,-1.356 -0.306,-2.393 -0.918,-3.103c-0.594,-0.683 -1.425,-1.024 -2.495,-1.024c-1.054,0 -1.9,0.345 -2.533,1.036c-0.668,0.739 -1.002,1.781 -1.002,3.134c0,1.268 0.317,2.263 0.96,2.973c0.638,0.714 1.497,1.072 2.575,1.072c1.115,0 1.969,-0.364 2.554,-1.085c0.573,-0.708 0.859,-1.707 0.859,-3.003m1.739,-0.059c0,1.688 -0.477,3.045 -1.427,4.061c-0.954,1.021 -2.237,1.531 -3.852,1.531c-1.59,0 -2.856,-0.51 -3.784,-1.531c-0.91,-0.983 -1.366,-2.283 -1.366,-3.898c0,-1.844 0.516,-3.264 1.552,-4.273c0.958,-0.936 2.24,-1.407 3.846,-1.407c1.58,0 2.814,0.493 3.704,1.469c0.882,0.98 1.327,2.33 1.327,4.048m8.411,2.504c0,0.868 -0.323,1.585 -0.973,2.159c-0.709,0.62 -1.683,0.93 -2.908,0.93c-1.002,0 -1.881,-0.21 -2.628,-0.638l0,-1.824c0.83,0.675 1.748,1.015 2.754,1.015c1.343,0 2.016,-0.495 2.016,-1.48c0,-0.414 -0.147,-0.757 -0.445,-1.023c-0.298,-0.271 -0.878,-0.594 -1.739,-0.974c-0.887,-0.388 -1.52,-0.787 -1.893,-1.2c-0.448,-0.491 -0.673,-1.129 -0.673,-1.915c0,-0.879 0.352,-1.611 1.046,-2.194c0.697,-0.585 1.592,-0.877 2.691,-0.877c0.842,0 1.596,0.164 2.266,0.497l0,1.707c-0.699,-0.504 -1.498,-0.755 -2.405,-0.755c-0.562,0 -1.013,0.14 -1.349,0.412c-0.34,0.279 -0.51,0.634 -0.51,1.068c0,0.469 0.142,0.834 0.425,1.096c0.252,0.241 0.786,0.536 1.591,0.879c0.904,0.379 1.558,0.772 1.956,1.174c0.517,0.508 0.778,1.156 0.778,1.943m10.366,-2.445c0,-1.356 -0.307,-2.393 -0.92,-3.103c-0.594,-0.683 -1.426,-1.024 -2.494,-1.024c-1.055,0 -1.9,0.345 -2.536,1.036c-0.667,0.739 -1,1.781 -1,3.134c0,1.268 0.319,2.263 0.954,2.973c0.646,0.714 1.506,1.072 2.582,1.072c1.117,0 1.968,-0.364 2.554,-1.085c0.572,-0.708 0.86,-1.707 0.86,-3.003m1.742,-0.059c0,1.688 -0.481,3.045 -1.433,4.061c-0.95,1.021 -2.233,1.531 -3.848,1.531c-1.592,0 -2.857,-0.51 -3.786,-1.531c-0.909,-0.983 -1.366,-2.283 -1.366,-3.898c0,-1.844 0.521,-3.264 1.551,-4.273c0.958,-0.936 2.241,-1.407 3.849,-1.407c1.581,0 2.813,0.493 3.7,1.469c0.883,0.98 1.333,2.33 1.333,4.048m7.473,-8.858c-0.333,-0.184 -0.704,-0.278 -1.126,-0.278c-1.188,0 -1.777,0.747 -1.777,2.245l0,1.633l2.483,0l0,1.438l-2.483,0l0,9.158l-1.698,0l0,-9.158l-1.802,0l0,-1.438l1.802,0l0,-1.717c0,-1.166 0.357,-2.081 1.084,-2.74c0.622,-0.573 1.383,-0.857 2.289,-0.857c0.524,0 0.932,0.063 1.228,0.184l0,1.53zm6.694,14.09c-0.4,0.229 -0.934,0.343 -1.593,0.343c-1.85,0 -2.774,-1.042 -2.774,-3.128l0,-6.266l-1.818,0l0,-1.439l1.818,0l0,-2.585c0.542,-0.171 1.105,-0.357 1.7,-0.55l0,3.135l2.667,0l0,1.439l-2.667,0l0,5.979c0,0.71 0.116,1.218 0.359,1.513c0.245,0.305 0.646,0.454 1.211,0.454c0.423,0 0.788,-0.113 1.097,-0.342l0,1.447zm-91.684,41.461c0,0.831 -0.295,1.548 -0.895,2.155c-0.596,0.604 -1.32,0.909 -2.17,0.909c-0.831,0 -1.538,-0.305 -2.116,-0.909c-0.58,-0.606 -0.868,-1.324 -0.868,-2.155c0,-0.854 0.289,-1.575 0.868,-2.171c0.579,-0.599 1.286,-0.896 2.116,-0.896c0.85,0 1.574,0.301 2.17,0.907c0.6,0.607 0.895,1.327 0.895,2.16m37.975,2.44l-5.532,0l-20.079,-31.008c-0.469,-0.746 -0.874,-1.557 -1.217,-2.442l-0.165,0c0.144,0.831 0.216,2.613 0.216,5.343l0,28.107l-4.559,0l0,-38.903l5.918,0l19.478,30.52c0.775,1.211 1.306,2.079 1.575,2.601l0.108,0c-0.18,-1.119 -0.274,-3.027 -0.274,-5.72l0,-27.4l4.532,0l0,38.902l-0.001,0zm29.233,0l-20.619,0l0,-38.903l19.724,0l0,4.123l-15.168,0l0,12.941l14.054,0l0,4.124l-14.054,0l0,13.591l16.063,0l0,4.124zm31.274,-34.78l-11.206,0l0,34.781l-4.558,0l0,-34.781l-11.228,0l0,-4.125l26.992,0l0,4.125z"/>
  <path id="svg_2" d="m45.407,15.604c4.399,13.452 6.064,37.449 18.928,37.449c0.979,0 1.969,-0.095 2.962,-0.285c-11.693,-2.727 -13.079,-26.462 -20.214,-38.754c-0.56,0.509 -1.115,1.039 -1.676,1.59" fill="#212529"/>
  <path id="svg_3" d="m47.083,14.014c7.135,12.292 8.521,36.027 20.214,38.754c0.918,-0.168 1.839,-0.424 2.762,-0.746c-10.496,-5.143 -13.397,-28.192 -21.5,-39.289c-0.491,0.41 -0.984,0.837 -1.476,1.281" fill="#212529"/>
  <path id="svg_4" d="m57.364,6.704c-0.977,0 -1.969,0.096 -2.964,0.285c-2.603,0.491 -5.247,1.611 -7.913,3.308c0.728,0.719 1.422,1.541 2.073,2.438c2.711,-2.249 5.404,-3.911 8.087,-4.911c1.007,-0.373 2.011,-0.653 3.017,-0.838c-0.726,-0.186 -1.492,-0.282 -2.3,-0.282" fill="#212529"/>
  <path id="svg_5" d="m78.251,47.282c1.074,-0.854 2.15,-1.798 3.228,-2.829c-4.47,-13.389 -6.07,-37.729 -19.023,-37.729c-0.926,0 -1.861,0.086 -2.792,0.259c11.798,2.934 13.309,28.605 18.587,40.299" fill="#212529"/>
  <path id="svg_6" d="m59.664,6.984c-0.726,-0.185 -1.492,-0.281 -2.301,-0.281l5.094,0.019c-0.927,0 -1.861,0.086 -2.793,0.262" fill="#212529"/>
  <path id="svg_7" d="m78.026,50.126c-0.506,-0.483 -0.987,-1.013 -1.46,-1.579c-2.179,1.543 -4.351,2.713 -6.507,3.475c0.767,0.375 1.572,0.653 2.426,0.826c0.662,0.136 1.347,0.205 2.067,0.205c2.421,0 4.334,-0.286 5.963,-1.068c-0.897,-0.485 -1.72,-1.112 -2.489,-1.859" fill="#212529"/>
  <path id="svg_8" d="m56.646,7.825c10.569,5.528 11.487,30.56 19.92,40.723c0.565,-0.398 1.125,-0.82 1.684,-1.265c-5.279,-11.695 -6.788,-37.368 -18.585,-40.3c-1.007,0.188 -2.012,0.467 -3.019,0.842" fill="#212529"/>
  <path id="svg_9" d="m48.559,12.734c8.103,11.097 11.004,34.146 21.5,39.289c2.158,-0.762 4.328,-1.932 6.507,-3.475c-8.433,-10.163 -9.352,-35.195 -19.92,-40.723c-2.683,0.998 -5.376,2.66 -8.087,4.909" fill="#212529"/>
  <path id="svg_10" d="m40.222,15.28c-1.271,2.872 -2.568,6.646 -4.136,11.574c3.118,-4.395 6.228,-8.181 9.32,-11.25c-0.427,-1.309 -0.883,-2.517 -1.376,-3.592c-1.264,0.968 -2.538,2.057 -3.808,3.268" fill="#212529"/>
  <path id="svg_11" d="m45.157,11.184c-0.373,0.267 -0.749,0.54 -1.125,0.828c0.493,1.076 0.949,2.283 1.375,3.592c0.562,-0.549 1.119,-1.082 1.677,-1.59c-0.601,-1.028 -1.237,-1.978 -1.927,-2.83" fill="#212529"/>
  <path id="svg_12" d="m46.486,10.296c-0.443,0.281 -0.884,0.577 -1.331,0.887c0.691,0.852 1.327,1.802 1.928,2.833c0.493,-0.446 0.985,-0.875 1.476,-1.282c-0.651,-0.897 -1.344,-1.719 -2.073,-2.438" fill="#212529"/>
  <path id="svg_13" d="m118.572,5.68c-5.977,23.05 -18.461,41.565 -28.927,46.232l-0.021,0l-0.565,0.241l-0.068,0.027l-0.161,0.062l-0.072,0.03l-0.261,0.092l-0.108,0.038l-0.13,0.043l-0.126,0.044l-0.112,0.037l-0.223,0.068l-0.095,0.025l-0.151,0.041l-0.102,0.028l-0.164,0.042l-0.201,0.044c0.473,0.175 0.966,0.263 1.497,0.263c9.924,0 19.932,-17.786 36.489,-47.363l-6.501,0l0.002,0.006z" fill="#212529"/>
  <path id="svg_14" d="m33.931,7.64l0.018,-0.017l0.023,-0.015l0.013,0l0.161,-0.062l0.032,-0.016l0.041,-0.018l0.173,-0.062l0.009,0l0.381,-0.133l0.056,-0.015l0.164,-0.049l0.075,-0.024l0.164,-0.049l0.063,-0.016l0.545,-0.142l0.075,-0.017l0.159,-0.031l0.079,-0.024l0.16,-0.03l0.037,0l0.332,-0.062l0.066,0l0.153,-0.026l0.086,-0.016l0.146,-0.022l0.082,-0.015l0.357,-0.032c-0.344,-0.032 -0.697,-0.054 -1.057,-0.054c-11.177,0 -26.576,20.738 -33.513,47.594l1.337,0c2.22,-3.959 4.214,-7.705 6.037,-11.22c4.859,-19.022 14.754,-31.996 23.544,-35.433" fill="#212529"/>
  <path id="svg_15" d="m40.222,15.28c1.271,-1.211 2.544,-2.3 3.808,-3.268c-0.288,-0.632 -0.587,-1.217 -0.907,-1.753c-1.022,1.241 -1.956,2.877 -2.901,5.021m0.919,-7.483c0.73,0.611 1.383,1.454 1.982,2.462c0.188,-0.231 0.379,-0.444 0.578,-0.646c-0.831,-0.774 -1.728,-1.409 -2.701,-1.889l0.119,0.057l0.022,0.016" fill="#212529"/>
  <path id="svg_16" d="m10.388,43.072c10.191,-19.64 15.02,-32.069 23.544,-35.433c-8.789,3.439 -18.686,16.412 -23.544,35.433" fill="#212529"/>
  <path id="svg_17" d="m43.7,9.614c-0.199,0.203 -0.387,0.415 -0.578,0.646c0.32,0.536 0.618,1.119 0.909,1.753c0.376,-0.289 0.752,-0.561 1.125,-0.829c-0.461,-0.569 -0.948,-1.097 -1.456,-1.57" fill="#212529"/>
  <path id="svg_18" d="m15.015,54.203l-0.185,0.022l-0.035,0l-0.157,0.016l-0.026,0l-0.374,0.025l-0.039,0c10.314,-0.289 15.03,-5.453 17.37,-12.944c1.777,-5.678 3.238,-10.462 4.518,-14.476c-4.32,6.081 -8.661,13.33 -13.024,21.451c-2.104,3.914 -5.304,5.549 -8.048,5.898" fill="#212529"/>
  <path id="svg_19" d="m15.015,54.199c2.744,-0.35 5.944,-1.983 8.048,-5.899c4.363,-8.118 8.706,-15.369 13.022,-21.451c1.571,-4.929 2.866,-8.701 4.138,-11.573c-8.604,8.189 -17.24,21.806 -25.208,38.919" fill="#212529"/>
  <path id="svg_20" d="m10.388,43.072c-1.824,3.515 -3.818,7.26 -6.039,11.22l3.889,0c0.514,-3.932 1.244,-7.681 2.149,-11.218" fill="#212529"/>
  <path id="svg_21" d="m37.225,6.791l-0.083,0.016l-0.146,0.021l-0.085,0.015l-0.153,0.027l-0.066,0.016l-0.332,0.058l-0.037,0l-0.162,0.032l-0.081,0.021l-0.157,0.031l-0.074,0.018l-0.546,0.142l-0.063,0.019l-0.165,0.049l-0.075,0.019l-0.163,0.048l-0.06,0.016l-0.379,0.133l-0.172,0.06l-0.072,0.03l-0.16,0.06l-0.053,0.026c-8.523,3.364 -13.352,15.793 -23.543,35.432c-0.905,3.538 -1.638,7.287 -2.15,11.218l0.546,0l3.739,-0.016l1.714,0l0.374,-0.025l0.024,0l0.157,-0.016l0.038,0l0.185,-0.022c7.967,-17.112 16.604,-30.729 25.208,-38.918c0.945,-2.144 1.878,-3.781 2.898,-5.02c-0.597,-1.008 -1.25,-1.853 -1.98,-2.465l-0.021,-0.016l-0.122,-0.059l-0.12,-0.061l-0.117,-0.057l-0.138,-0.058l-0.108,-0.047l-0.226,-0.094l-0.096,-0.037l-0.168,-0.067l-0.091,-0.03l-0.234,-0.08l-0.019,0l-0.271,-0.077l-0.061,-0.019l-0.228,-0.064l-0.053,-0.015c-0.185,-0.05 -0.375,-0.089 -0.567,-0.124l-0.059,-0.016l-0.246,-0.04l-0.048,-0.015l-0.291,-0.038l-0.051,0l-0.224,-0.025l-0.357,0.033" fill="#212529"/>
  <path id="svg_22" d="m95.226,18.441c-1.961,6.281 -3.549,11.463 -4.931,15.727c5.381,-7.404 10.68,-16.718 15.728,-27.467c-5.889,1.849 -9.029,6.081 -10.797,11.74" fill="#212529"/>
  <path id="svg_23" d="m90.465,51.52c-0.274,0.14 -0.55,0.272 -0.82,0.393c10.466,-4.668 22.951,-23.183 28.927,-46.233l-1.211,0c-13.733,24.53 -18.149,40.952 -26.896,45.84" fill="#212529"/>
  <path id="svg_24" d="m83.631,49.459c2.277,-2.779 4.132,-7.504 6.665,-15.292c-2.921,4.012 -5.861,7.462 -8.804,10.274l-0.015,0.025c0.642,1.923 1.346,3.622 2.149,4.992" fill="#212529"/>
  <path id="svg_25" d="m83.631,49.459c-0.775,0.946 -1.596,1.666 -2.509,2.2c-0.2,0.117 -0.402,0.227 -0.608,0.326c0.964,0.52 2.016,0.868 3.193,1.007l0.522,0.046l0.031,0l0.251,0.016l0.852,0l0.096,-0.016l0.188,-0.016l0.091,0l0.205,-0.022l0.015,0l0.063,-0.015l0.218,-0.034l0.064,0l0.245,-0.041l0.039,0l0.489,-0.104c-1.351,-0.493 -2.481,-1.66 -3.455,-3.32" fill="#212529"/>
  <path id="svg_26" d="m64.335,53.053c0.979,0 1.968,-0.096 2.961,-0.287c0.919,-0.167 1.84,-0.422 2.762,-0.744c0.767,0.375 1.573,0.653 2.425,0.827c0.662,0.135 1.348,0.204 2.069,0.204l-10.217,0zm10.217,0c2.419,0 4.334,-0.287 5.962,-1.068c0.964,0.521 2.016,0.868 3.193,1.007l0.522,0.045l0.031,0l0.251,0.016l0.301,0l-10.26,0z" fill="#1E5CB3"/>
  <path id="svg_27" d="m84.812,53.053l0.559,0l0.096,-0.016l0.19,-0.016l0.093,0l0.203,-0.022l0.017,0l0.062,-0.015l0.218,-0.033l0.066,-0.015l0.246,-0.04l0.039,0l0.489,-0.104c0.473,0.174 0.966,0.263 1.498,0.263l-3.773,0.016l-0.003,-0.018z" fill="#1D60B5"/>
  <path id="svg_28" d="m81.482,44.467l0,-0.016c-1.078,1.031 -2.153,1.976 -3.228,2.83c-0.561,0.445 -1.12,0.867 -1.686,1.265c0.473,0.565 0.954,1.096 1.461,1.579c0.77,0.746 1.591,1.374 2.488,1.859c0.205,-0.1 0.408,-0.21 0.607,-0.326c0.915,-0.534 1.734,-1.254 2.51,-2.2c-0.803,-1.37 -1.507,-3.069 -2.148,-4.992" fill="#212529"/>
  <path id="svg_29" d="m113.525,5.68l-6.096,0l-0.966,0.047l-0.45,0.962c-5.046,10.749 -10.346,20.063 -15.727,27.468c-2.53,7.786 -4.387,12.511 -6.664,15.291c0.973,1.661 2.106,2.829 3.452,3.324l0.106,-0.023l0.022,0l0.074,-0.017l0.169,-0.042l0.1,-0.029l0.151,-0.04l0.094,-0.026l0.224,-0.068l0.112,-0.037l0.126,-0.046l0.129,-0.041l0.105,-0.04l0.263,-0.092l0.073,-0.027l0.161,-0.063l0.069,-0.025l0.565,-0.241l0.019,0c0.271,-0.12 0.546,-0.253 0.819,-0.393c8.75,-4.888 13.166,-21.31 26.898,-45.84l-3.835,0l0.007,-0.002z" fill="#212529"/>
  <path id="svg_30" d="m37.583,6.758l0.063,0.016l0.159,0.017l0.054,0l0.29,0.037l0.05,0.016l0.245,0.041l0.061,0.015l0.566,0.125l0.051,0.016l0.227,0.064l0.063,0.019l0.269,0.077l0.02,0.016l0.236,0.081l0.09,0.029l0.169,0.069l0.096,0.034l0.224,0.094l0.11,0.047l0.135,0.059l0.12,0.056l0.119,0.062c0.974,0.479 1.871,1.117 2.702,1.89c0.305,-0.322 0.625,-0.61 0.958,-0.87c-1.815,-1.288 -3.874,-2.022 -6.246,-2.022c-0.275,0 -0.549,0.016 -0.829,0.037" fill="#212529"/>
  <path id="svg_31" d="m43.7,9.614c0.508,0.473 0.995,1.001 1.456,1.57c0.445,-0.31 0.887,-0.608 1.331,-0.887c-0.581,-0.582 -1.193,-1.104 -1.831,-1.553c-0.332,0.257 -0.651,0.548 -0.956,0.87" fill="#212529"/>
  <g id="svg_32" transform="matrix(5.048 0 0 -5.048 -9064.26 2270.61)">
   <path id="svg_33" d="m1803.007,448.452l0.164,0.007c0.47,0 0.878,-0.145 1.237,-0.4c0.38,0.299 0.838,0.404 1.476,0.404l-3.086,0l0.209,-0.011" fill="#212529"/>
  </g>
  <g id="svg_34" transform="matrix(5.048 0 0 -5.048 -9064.26 2270.61)">
   <path id="svg_35" d="m1805.884,448.463c-0.637,0 -1.096,-0.105 -1.476,-0.404c0.126,-0.089 0.247,-0.192 0.362,-0.307c0.528,0.336 1.052,0.558 1.568,0.656c0.197,0.037 0.393,0.056 0.587,0.056l-1.041,0l0,-0.001z" fill="#212529"/>
  </g>
  <path id="svg_36" d="m90.295,34.172c1.384,-4.267 2.968,-9.447 4.933,-15.73c1.771,-5.661 4.905,-9.894 10.792,-11.741l0.454,-0.962c-9.597,0.575 -14.082,5.457 -16.339,12.687c-3.947,12.622 -6.339,20.803 -8.641,26.017c2.94,-2.812 5.88,-6.263 8.801,-10.271" fill="#212529"/>
 </g>
</svg>