<svg width="1333.33" height="773.55" xmlns="http://www.w3.org/2000/svg" clip-rule="evenodd">

 <g>
  <title>background</title>
  <rect fill="none" id="canvas_background" height="402" width="582" y="-1" x="-1"/>
 </g>
 <g>
  <title>Layer 1</title>
  <path stroke="null" id="svg_1" fill-rule="nonzero" d="m1333.329994,676.538658c-42.20711,11.070785 -68.314601,0.484852 -91.73302,-35.798232l-166.583195,-237.783939l-24.079809,-32.925035l-194.535615,271.499103c-22.226177,32.664652 -45.540166,46.869016 -87.024969,35.31338l249.108973,-345.008038l-231.921542,-311.643044c39.883543,-8.000056 67.444351,-3.932688 91.915772,32.925035l172.779373,240.746923l174.049938,-239.436027c22.295797,-32.664652 46.271176,-45.073269 86.302662,-33.041759l-89.9229,123.008721l-121.834956,163.673429c-14.507062,18.702713 -12.514191,31.506394 0.83544,49.562638l232.643849,318.906844zm-1160.034132,-350.467111l20.372545,-103.408135c55.478418,-204.643414 282.831149,-289.681049 439.624035,-163.233471c91.62859,74.370893 114.403024,179.574776 109.869023,297.420722l-516.49319,0c-7.753925,212.122704 140.223332,340.141561 328.87606,274.830215c66.173786,-22.931699 105.15227,-76.400088 124.663268,-143.282714c9.903441,-33.517632 26.281541,-38.761215 56.818602,-29.180901c-15.586172,83.654909 -50.761664,153.536433 -125.098393,197.27187c-111.061265,65.463984 -269.603354,44.292118 -352.990679,-46.689442c-49.682555,-52.794984 -70.203042,-119.677609 -79.410284,-191.211221c-1.453317,-11.824999 -4.351248,-23.084337 -6.526873,-34.415506c0.191455,-19.358161 0.295885,-38.707343 0.295885,-58.065504l0,-0.035915zm54.312283,-14.213343l466.741016,0c-3.045874,-153.383795 -95.614333,-262.331811 -222.131233,-263.256621c-138.874445,-1.122342 -238.596357,105.230819 -244.618485,263.256621l0.008702,0z"/>
 </g>
</svg>